<svg xmlns="http://www.w3.org/2000/svg" width="28.224" height="34.814" viewBox="0 0 28.224 34.814">
  <defs>
    <style>
      .cls-1 {
        fill: #fffef3;
      }
    </style>
  </defs>
  <g id="_0000" data-name="0000" transform="translate(-723.796 -193.511)">
    <g id="strokes" transform="translate(723.796 193.511)">
      <path id="Exclusion_1" data-name="Exclusion 1" class="cls-1" d="M26.727,34.814H19.051l-.365-.048-.341-.141-.292-.224-.224-.292-.141-.341L17.64,33.4V18.98H14.112V27.8l-.033.6-.005.095-.091.591-.015.094-.149.579-.024.092-.2.562-.032.089-.259.539-.041.085-.31.511-.049.081-.359.478-.057.076-.4.44-.064.07-.445.4-.071.063-.482.353-.077.056-.515.3L10.345,34l-.542.252-.086.04-.564.2-.09.031-.58.142-.092.023L7.8,34.77l-.094.013-.6.026-.1,0H1.5l-.18-.011-.178-.032-.173-.054L.8,34.642l-.155-.093L.5,34.437.376,34.31l-.111-.142-.094-.155L.1,33.848l-.054-.172L.011,33.5,0,33.317V11.3l.007-.148L.027,11l.034-.162.047-.166L.167,10.5l.071-.165.081-.162.09-.155.1-.148.1-.137L.72,9.611.832,9.5l.114-.094.478-.359L1.9,8.691l.478-.359.478-.359.478-.359.478-.359L4.292,6.9l.478-.359.478-.359.478-.359L6.2,5.464l.478-.358.478-.359.478-.359.478-.359.478-.358.478-.359.478-.359.478-.359.478-.359.478-.358.478-.359.478-.359L12.418.8,12.9.446l.157-.119.136-.09L13.338.16,13.5.1l.169-.048.175-.032L14.022,0H14.2l.179.016.175.032L14.727.1l.16.063.148.077.136.09.478.359.478.359L16.6,1.4l.478.359.478.359.477.359.478.359.478.358.478.359.478.359.478.359.478.358.478.359.478.359.478.359.478.359.478.358.478.359.478.359.478.359.478.359.478.358.478.359.478.359.478.359.158.118.114.094.112.11.109.125.1.137.1.148.09.155.081.162.071.165.059.166.047.166L28.2,11l.021.156.007.148V33.317l-.011.181-.032.178-.054.172-.074.165-.093.155-.112.142-.128.128-.142.112-.155.093-.164.074-.173.054-.178.032ZM7.056,15.451H21.189V31.328h2.053l.18-.011.177-.033.173-.054.165-.074.155-.093.142-.111.128-.128.111-.142.094-.155.074-.165.054-.172.033-.178.01-.18V13.044l-.007-.148-.02-.156-.034-.162-.048-.165-.059-.167-.07-.165-.08-.161-.09-.156-.1-.147-.1-.137-.109-.124-.113-.11-.115-.094-.478-.359-.478-.359-.478-.359-.478-.359L21.4,9.358,20.924,9l-.478-.359-.478-.359-.478-.359-.478-.358-.478-.359-.478-.359-.478-.359L17.1,6.132l-.478-.359-.478-.359-.478-.359-.5-.372-.135-.09-.148-.077-.16-.063-.169-.048-.175-.033-.18-.016h-.181l-.179.016-.175.033-.169.048-.16.063-.148.077-.136.09-.478.359L12.1,5.4l-.478.359-.478.359-.478.358-.478.359-.478.359-.478.359-.478.359-.478.358L7.8,8.627l-.478.359-.478.359L6.362,9.7l-.478.359-.478.359-.478.359-.5.372-.114.094-.113.11-.109.124-.1.137-.1.147-.09.156-.08.161-.07.165-.059.167-.047.165-.034.162-.021.156-.006.148V29.831l.011.18.033.177.055.172.075.164.094.153.113.141.13.126.144.11.156.092.167.072.175.052.18.031L5,31.31l.6-.007.6-.007.6-.007.221,0,.346-.013.343-.047.337-.08.327-.113.315-.144.3-.174.281-.2.259-.229.235-.254.21-.276.182-.3.151-.311.121-.325.088-.335.055-.342.021-.346V18.98H8.467L8.1,18.932l-.34-.141-.293-.224-.224-.292-.141-.34-.048-.366V15.452Z" transform="translate(0 0)"/>
    </g>
  </g>
</svg>
