<svg xmlns="http://www.w3.org/2000/svg" width="33.194" height="43.495" viewBox="0 0 33.194 43.495">
  <defs>
    <style>
      .cls-1 {
        fill: #fffef3;
      }

      .cls-2, .cls-3 {
        fill: none;
        stroke: #707070;
        stroke-width: 3px;
      }

      .cls-2 {
        stroke-linejoin: round;
      }

      .cls-4, .cls-5 {
        stroke: none;
      }

      .cls-5 {
        fill: #707070;
      }
    </style>
  </defs>
  <g id="Group_19" data-name="Group 19" transform="translate(-152 -836)">
    <g id="Path_22" data-name="Path 22" class="cls-1" transform="translate(152 836)">
      <path class="cls-4" d="M 20.1910514831543 40.75225830078125 L 1.5 40.75225830078125 L 1.5 1.49999725818634 L 30.47467994689941 1.49999725818634 L 30.47467994689941 30.52772903442383 L 25.37718963623047 35.46604537963867 L 25.36347007751465 35.47934722900391 L 25.35009002685547 35.49298858642578 L 20.1910514831543 40.75225830078125 Z"/>
      <path class="cls-5" d="M 3 2.999996185302734 L 3 39.25225830078125 L 19.56126403808594 39.25225830078125 L 24.27927017211914 34.44258880615234 L 24.3060302734375 34.41529846191406 L 24.3334903717041 34.38870620727539 L 28.97467994689941 29.89243316650391 L 28.97467994689941 2.999996185302734 L 3 2.999996185302734 M 0 -3.814697265625e-06 L 31.97467994689941 -3.814697265625e-06 L 31.97467994689941 31.16302680969238 L 26.42090034484863 36.54339599609375 L 20.82083892822266 42.25225830078125 L 0 42.25225830078125 L 0 -3.814697265625e-06 Z"/>
    </g>
    <path id="Path_18" data-name="Path 18" class="cls-2" d="M2190.357,893.082l-8.784,8.7v-8.7Z" transform="translate(-2008.81 -25.883)"/>
    <path id="Path_19" data-name="Path 19" class="cls-3" d="M2149.767,851.339h14.751" transform="translate(-1989.261 -6.581)"/>
    <path id="Path_20" data-name="Path 20" class="cls-3" d="M2149.767,851.339h14.751" transform="translate(-1989.261 1.984)"/>
    <path id="Path_21" data-name="Path 21" class="cls-3" d="M2149.767,851.339h14.751" transform="translate(-1989.261 10.549)"/>
  </g>
</svg>
